<svg version="1.1" id="Layer_1" xmlns="http://www.w3.org/2000/svg" xmlns:xlink="http://www.w3.org/1999/xlink" x="0px" y="0px"
	 width="100%" viewBox="0 0 140 130" enable-background="new 0 0 140 130" xml:space="preserve">
<path fill="#FEFEFE" opacity="1.000000" stroke="none" 
	d="
M97.000000,131.000000 
	C64.666672,131.000000 32.833340,131.000000 1.000009,131.000000 
	C1.000006,87.666679 1.000006,44.333351 1.000003,1.000020 
	C47.666653,1.000013 94.333305,1.000013 140.999969,1.000007 
	C140.999969,44.333313 140.999969,87.666626 140.999985,130.999969 
	C126.500000,131.000000 112.000000,131.000000 97.000000,131.000000 
M43.376320,49.232113 
	C35.160023,52.767509 33.709717,54.990242 33.740170,63.992275 
	C33.759289,69.642799 33.746338,75.293617 33.800537,80.943794 
	C33.872662,88.463341 37.931652,92.894714 45.357655,92.954407 
	C62.474552,93.091988 79.594246,93.094360 96.710968,92.943497 
	C104.331230,92.876335 108.881630,87.964218 108.997261,80.214516 
	C109.074120,75.063568 109.018967,69.910530 109.009026,64.758446 
	C108.989586,54.677223 107.432549,52.419228 98.413101,48.276375 
	C99.143623,46.300873 100.769539,44.077065 100.312996,42.430756 
	C99.966202,41.180218 96.978851,39.955116 95.151596,39.932816 
	C79.281067,39.739117 63.406628,39.759232 47.535091,39.905052 
	C45.783775,39.921146 42.621330,41.019749 42.564568,41.795624 
	C42.394417,44.121460 43.439693,46.536221 43.376320,49.232113 
M125.735214,52.257301 
	C129.263428,41.329952 132.770996,30.395876 136.330948,19.478882 
	C137.594604,15.603724 136.370804,12.750022 132.602966,11.537358 
	C129.057053,10.396116 126.845146,12.621675 125.802834,15.742613 
	C121.180214,29.583853 116.496620,43.411777 112.353310,57.398048 
	C111.768051,59.373669 113.365082,63.291595 115.138428,64.383286 
	C118.228249,66.285416 121.309364,64.325523 122.785469,61.032230 
	C123.933578,58.470707 124.571381,55.680450 125.735214,52.257301 
z"/>
<path fill="#FB7246" opacity="1.000000" stroke="none" 
	d="
M98.087013,48.876171 
	C107.432549,52.419228 108.989586,54.677223 109.009026,64.758446 
	C109.018967,69.910530 109.074120,75.063568 108.997261,80.214516 
	C108.881630,87.964218 104.331230,92.876335 96.710968,92.943497 
	C79.594246,93.094360 62.474552,93.091988 45.357655,92.954407 
	C37.931652,92.894714 33.872662,88.463341 33.800537,80.943794 
	C33.746338,75.293617 33.759289,69.642799 33.740170,63.992275 
	C33.709717,54.990242 35.160023,52.767509 44.158413,49.110802 
	C62.656010,48.951717 80.371513,48.913944 98.087013,48.876171 
z"/>
<path fill="#88C58A" opacity="1.000000" stroke="none" 
	d="
M125.585602,52.624580 
	C124.571381,55.680450 123.933578,58.470707 122.785469,61.032230 
	C121.309364,64.325523 118.228249,66.285416 115.138428,64.383286 
	C113.365082,63.291595 111.768051,59.373669 112.353310,57.398048 
	C116.496620,43.411777 121.180214,29.583853 125.802834,15.742613 
	C126.845146,12.621675 129.057053,10.396116 132.602966,11.537358 
	C136.370804,12.750022 137.594604,15.603724 136.330948,19.478882 
	C132.770996,30.395876 129.263428,41.329952 125.585602,52.624580 
z"/>
<path fill="#89C383" opacity="1.000000" stroke="none" 
	d="
M98.250061,48.576271 
	C80.371513,48.913944 62.656010,48.951717 44.475548,48.952881 
	C43.439693,46.536221 42.394417,44.121460 42.564568,41.795624 
	C42.621330,41.019749 45.783775,39.921146 47.535091,39.905052 
	C63.406628,39.759232 79.281067,39.739117 95.151596,39.932816 
	C96.978851,39.955116 99.966202,41.180218 100.312996,42.430756 
	C100.769539,44.077065 99.143623,46.300873 98.250061,48.576271 
z"/>
</svg>